# xmcd
#
# Track frame offsets: 
#        150
#        15593
#        36046
#        53438
#        63475
#        73979
#        90061
#        103780
#        118320
#        133656
#        144639
#
# Disc length: 2103 seconds
#
# Revision: 0
# Processed by: cddbd v1.4PL0 Copyright (c) Steve Scherf et al.
# Submitted via: ExactAudioCopy v0.90b4
#
DISCID=9608350b
DTITLE=Donnie Wallace - For The First Time
DYEAR=2000
DGENRE=Country
TTITLE0=Here Comes Love
TTITLE1=Superstar
TTITLE2=Love Trip
TTITLE3=Wanch'ya To Know (That I Love You)
TTITLE4=New York City Cowgirl
TTITLE5=For The First Time
TTITLE6=Sunshine
TTITLE7=Jodie's Mine
TTITLE8=Thinking Out Loud
TTITLE9=You Did It
TTITLE10=Just About Prob'ly
EXTD=
EXTT0=
EXTT1=
EXTT2=
EXTT3=
EXTT4=
EXTT5=
EXTT6=
EXTT7=
EXTT8=
EXTT9=
EXTT10=
PLAYORDER=
